<svg width="16" height="9" viewBox="0 0 16 9" fill="none" xmlns="http://www.w3.org/2000/svg">
<path d="M14.0001 0.333252C13.0334 0.333252 12.4934 1.29325 12.7134 2.00659L10.3467 4.37992C10.1467 4.31992 9.85341 4.31992 9.65341 4.37992L7.95341 2.67992C8.18008 1.96659 7.64008 0.999919 6.66675 0.999919C5.70008 0.999919 5.15341 1.95992 5.38008 2.67992L2.34008 5.71325C1.62675 5.49325 0.666748 6.03325 0.666748 6.99992C0.666748 7.73325 1.26675 8.33325 2.00008 8.33325C2.96675 8.33325 3.50675 7.37325 3.28675 6.65992L6.32008 3.61992C6.52008 3.67992 6.81342 3.67992 7.01342 3.61992L8.71342 5.31992C8.48675 6.03325 9.02675 6.99992 10.0001 6.99992C10.9667 6.99992 11.5134 6.03992 11.2867 5.31992L13.6601 2.95325C14.3734 3.17325 15.3334 2.63325 15.3334 1.66659C15.3334 0.933252 14.7334 0.333252 14.0001 0.333252Z" fill="#7C35A6"/>
</svg>
