<svg width="16" height="16" viewBox="0 0 16 16" fill="none" xmlns="http://www.w3.org/2000/svg">
<path d="M14.0001 5.33325C13.0334 5.33325 12.4934 6.29325 12.7134 7.00659L10.3467 9.37992C10.1467 9.31992 9.85341 9.31992 9.65341 9.37992L7.95341 7.67992C8.18008 6.96659 7.64008 5.99992 6.66675 5.99992C5.70008 5.99992 5.15341 6.95992 5.38008 7.67992L2.34008 10.7133C1.62675 10.4933 0.666748 11.0333 0.666748 11.9999C0.666748 12.7333 1.26675 13.3333 2.00008 13.3333C2.96675 13.3333 3.50675 12.3733 3.28675 11.6599L6.32008 8.61992C6.52008 8.67992 6.81342 8.67992 7.01342 8.61992L8.71342 10.3199C8.48675 11.0333 9.02675 11.9999 10.0001 11.9999C10.9667 11.9999 11.5134 11.0399 11.2867 10.3199L13.6601 7.95325C14.3734 8.17325 15.3334 7.63325 15.3334 6.66659C15.3334 5.93325 14.7334 5.33325 14.0001 5.33325Z" fill="#7C35A6"/>
</svg>
