<svg width="16" height="16" viewBox="0 0 16 16" fill="none" xmlns="http://www.w3.org/2000/svg">
<path d="M14.0001 6.66667H8.43341C8.15879 5.88699 7.64898 5.21175 6.97431 4.73411C6.29964 4.25647 5.49338 3.99997 4.66675 4C2.46008 4 0.666748 5.79333 0.666748 8C0.666748 10.2067 2.46008 12 4.66675 12C5.49338 12 6.29964 11.7435 6.97431 11.2659C7.64898 10.7883 8.15879 10.113 8.43341 9.33333H8.66675L10.0001 10.6667L11.3334 9.33333L12.6667 10.6667L15.3334 7.97333L14.0001 6.66667ZM4.66675 10C3.56675 10 2.66675 9.1 2.66675 8C2.66675 6.9 3.56675 6 4.66675 6C5.76675 6 6.66675 6.9 6.66675 8C6.66675 9.1 5.76675 10 4.66675 10Z" fill="#7C35A6"/>
</svg>
