<svg width="227" height="22" viewBox="0 0 227 22" fill="none" xmlns="http://www.w3.org/2000/svg">
<path d="M2.99919 3.40783C3.94132 7.46052 6.22886 11.0744 9.48868 13.66C12.7485 16.2456 16.7882 17.6504 20.949 17.6452C25.1098 17.64 29.146 16.2251 32.3993 13.6314C35.6527 11.0376 37.9312 7.41806 38.8632 3.36304L41.8624 4.45471C40.6995 9.12332 38.0095 13.2693 34.2199 16.2337C30.4304 19.1981 25.7588 20.8109 20.9475 20.8157C16.1362 20.8205 11.4614 19.2171 7.66594 16.2602C3.8705 13.3034 1.17224 9.16276 0 4.49648L2.99919 3.40783Z" fill="#FF6B0D"/>
<path d="M32.3444 0.990001C31.9274 3.7148 30.5496 6.20061 28.46 7.99835C26.3703 9.79608 23.7066 10.7872 20.9501 10.7926C18.1936 10.798 15.526 9.81736 13.4294 8.02784C11.3327 6.23832 9.94516 3.75794 9.51747 1.03479L12.2434 0.0427809C13.2165 1.44409 14.5147 2.5888 16.0267 3.37898C17.5388 4.16915 19.2198 4.58127 20.9259 4.58007C22.6407 4.58139 24.3301 4.16505 25.848 3.36706C27.3658 2.56906 28.6665 1.41341 29.6376 0L32.3444 0.990001Z" fill="#FF6B0D"/>
<path d="M56.1555 16.6555C54.9384 16.6555 53.8618 16.4084 52.9256 15.9142C52.005 15.4201 51.2873 14.7328 50.7724 13.8526C50.2575 12.9569 50 11.9299 50 10.7716V5.81437C50 4.67157 50.2575 3.66004 50.7724 2.77978C51.2873 1.89952 52.005 1.22001 52.9256 0.741273C53.8618 0.247091 54.9384 0 56.1555 0C57.3881 0 58.4647 0.247091 59.3853 0.741273C60.3215 1.22001 61.0471 1.89952 61.562 2.77978C62.0769 3.66004 62.3343 4.67157 62.3343 5.81437V10.7716C62.3343 11.9299 62.0769 12.9569 61.562 13.8526C61.0471 14.7483 60.3215 15.4432 59.3853 15.9374C58.4647 16.4161 57.3881 16.6555 56.1555 16.6555ZM56.1555 13.8526C57.0136 13.8526 57.708 13.5823 58.2385 13.0418C58.769 12.5013 59.0343 11.7832 59.0343 10.8875V5.79121C59.0343 4.8955 58.769 4.17739 58.2385 3.63688C57.7236 3.08092 57.0292 2.80294 56.1555 2.80294C55.2973 2.80294 54.6029 3.08092 54.0724 3.63688C53.5575 4.17739 53.3001 4.8955 53.3001 5.79121V10.8875C53.3001 11.7832 53.5575 12.5013 54.0724 13.0418C54.6029 13.5823 55.2973 13.8526 56.1555 13.8526Z" fill="#FF6B0D"/>
<path d="M65.1451 16.4007C65.0671 16.4007 64.9969 16.3775 64.9345 16.3312C64.8876 16.2694 64.8642 16.1999 64.8642 16.1227V0.463296C64.8642 0.38608 64.8876 0.324307 64.9345 0.277977C64.9969 0.216204 65.0671 0.185318 65.1451 0.185318H67.8835C67.9615 0.185318 68.0239 0.216204 68.0707 0.277977C68.1331 0.324307 68.1643 0.38608 68.1643 0.463296V6.94945C68.1643 6.99578 68.1799 7.02667 68.2111 7.04211C68.2423 7.04211 68.2735 7.02667 68.3048 6.99578L73.7113 0.347472C73.8049 0.239369 73.9219 0.185318 74.0623 0.185318H77.1518C77.2766 0.185318 77.3546 0.223926 77.3858 0.301142C77.417 0.362915 77.4014 0.440131 77.339 0.53279L72.1197 7.13477C72.0729 7.19654 72.0651 7.25059 72.0963 7.29692L77.6199 16.0764C77.6511 16.1691 77.6667 16.2231 77.6667 16.2386C77.6667 16.3467 77.5887 16.4007 77.4326 16.4007H74.3432C74.1872 16.4007 74.0779 16.3389 74.0155 16.2154L69.8495 9.54391C69.8339 9.51303 69.8105 9.49758 69.7793 9.49758C69.748 9.49758 69.7168 9.51303 69.6856 9.54391L68.2111 11.3739C68.1799 11.4357 68.1643 11.482 68.1643 11.5129V16.1227C68.1643 16.1999 68.1331 16.2694 68.0707 16.3312C68.0239 16.3775 67.9615 16.4007 67.8835 16.4007H65.1451Z" fill="#FF6B0D"/>
<path d="M88.5026 16.4007C88.3465 16.4007 88.2373 16.3312 88.1749 16.1922L85.2493 9.77556C85.2181 9.71379 85.1713 9.6829 85.1089 9.6829H82.9322C82.8542 9.6829 82.8152 9.72151 82.8152 9.79873V16.1227C82.8152 16.1999 82.784 16.2694 82.7216 16.3312C82.6748 16.3775 82.6123 16.4007 82.5343 16.4007H79.796C79.7179 16.4007 79.6477 16.3775 79.5853 16.3312C79.5385 16.2694 79.5151 16.1999 79.5151 16.1227V0.463296C79.5151 0.38608 79.5385 0.324307 79.5853 0.277977C79.6477 0.216204 79.7179 0.185318 79.796 0.185318H86.4897C87.4883 0.185318 88.3621 0.38608 89.1111 0.787604C89.8756 1.18913 90.4608 1.76053 90.8664 2.5018C91.2877 3.24308 91.4984 4.10018 91.4984 5.0731C91.4984 6.12324 91.2331 7.02667 90.7026 7.78338C90.1721 8.52466 89.4309 9.04973 88.4791 9.35859C88.4011 9.38948 88.3777 9.44353 88.4089 9.52075L91.592 16.0764C91.6232 16.1382 91.6388 16.1845 91.6388 16.2154C91.6388 16.3389 91.553 16.4007 91.3813 16.4007H88.5026ZM82.9322 2.98826C82.8542 2.98826 82.8152 3.02687 82.8152 3.10409V7.06527C82.8152 7.14249 82.8542 7.1811 82.9322 7.1811H85.9982C86.6536 7.1811 87.1841 6.98806 87.5898 6.60198C88.011 6.2159 88.2217 5.71399 88.2217 5.09626C88.2217 4.47853 88.011 3.97663 87.5898 3.59055C87.1841 3.18902 86.6536 2.98826 85.9982 2.98826H82.9322Z" fill="#FF6B0D"/>
<path d="M109.68 0.165712C109.758 0.0552373 109.851 0 109.961 0H111.179C111.336 0 111.414 0.07891 111.414 0.23673V16.3344C111.414 16.4922 111.336 16.5711 111.179 16.5711H109.984C109.828 16.5711 109.75 16.4922 109.75 16.3344V3.17219C109.75 3.12484 109.734 3.09328 109.703 3.07749C109.672 3.06171 109.648 3.07749 109.633 3.12484L105.813 9.0431C105.735 9.15357 105.641 9.20881 105.532 9.20881H104.923C104.813 9.20881 104.72 9.16146 104.642 9.06677L100.822 3.19586C100.806 3.14851 100.783 3.13273 100.752 3.14851C100.721 3.16429 100.705 3.19586 100.705 3.2432V16.3344C100.705 16.4922 100.627 16.5711 100.471 16.5711H99.2755C99.1193 16.5711 99.0412 16.4922 99.0412 16.3344V0.23673C99.0412 0.07891 99.1193 0 99.2755 0H100.494C100.619 0 100.713 0.0473464 100.775 0.142039L105.181 6.88885C105.196 6.90463 105.22 6.91252 105.251 6.91252C105.282 6.91252 105.306 6.90463 105.321 6.88885L109.68 0.165712Z" fill="#252525"/>
<path d="M119.565 4.40318C120.971 4.40318 122.056 4.76617 122.822 5.49214C123.587 6.21812 123.97 7.18082 123.97 8.38025V16.3344C123.97 16.4922 123.892 16.5711 123.736 16.5711H122.541C122.384 16.5711 122.306 16.4922 122.306 16.3344V15.3638C122.306 15.3322 122.291 15.3086 122.259 15.2928C122.244 15.277 122.22 15.2849 122.189 15.3164C121.798 15.7899 121.291 16.1529 120.666 16.4054C120.041 16.6421 119.346 16.7605 118.58 16.7605C117.471 16.7605 116.542 16.4764 115.792 15.9083C115.042 15.3401 114.667 14.4721 114.667 13.3042C114.667 12.1206 115.089 11.1895 115.933 10.5108C116.792 9.81642 117.979 9.46921 119.494 9.46921H122.212C122.275 9.46921 122.306 9.43765 122.306 9.37452V8.47494C122.306 7.67006 122.08 7.03878 121.627 6.5811C121.189 6.10764 120.502 5.87091 119.565 5.87091C118.815 5.87091 118.205 6.02084 117.737 6.3207C117.268 6.60478 116.979 7.00722 116.87 7.52802C116.823 7.68584 116.729 7.75686 116.589 7.74108L115.323 7.57537C115.151 7.5438 115.081 7.48068 115.112 7.38599C115.237 6.50219 115.706 5.78411 116.518 5.23174C117.331 4.67937 118.346 4.40318 119.565 4.40318ZM118.908 15.3164C119.83 15.3164 120.627 15.0876 121.299 14.6299C121.97 14.1565 122.306 13.5252 122.306 12.7361V10.8896C122.306 10.8265 122.275 10.7949 122.212 10.7949H119.752C118.721 10.7949 117.893 11.008 117.268 11.4341C116.643 11.8602 116.331 12.452 116.331 13.2095C116.331 13.904 116.565 14.4327 117.034 14.7956C117.518 15.1428 118.143 15.3164 118.908 15.3164Z" fill="#252525"/>
<path d="M132.353 4.42686C133.603 4.42686 134.594 4.79773 135.329 5.53949C136.079 6.28124 136.453 7.27551 136.453 8.52229V16.3344C136.453 16.4922 136.375 16.5711 136.219 16.5711H135.024C134.868 16.5711 134.79 16.4922 134.79 16.3344V8.85371C134.79 7.9857 134.524 7.27551 133.993 6.72314C133.478 6.17077 132.806 5.89458 131.978 5.89458C131.119 5.89458 130.423 6.16288 129.892 6.69947C129.361 7.23606 129.096 7.93836 129.096 8.80637V16.3344C129.096 16.4922 129.018 16.5711 128.861 16.5711H127.666C127.51 16.5711 127.432 16.4922 127.432 16.3344V4.8293C127.432 4.67148 127.51 4.59257 127.666 4.59257H128.861C129.018 4.59257 129.096 4.67148 129.096 4.8293V5.84724C129.096 5.8788 129.103 5.90248 129.119 5.91826C129.15 5.93404 129.174 5.92615 129.189 5.89458C129.877 4.9161 130.931 4.42686 132.353 4.42686Z" fill="#252525"/>
<path d="M144.164 4.40318C145.57 4.40318 146.656 4.76617 147.421 5.49214C148.187 6.21812 148.57 7.18082 148.57 8.38025V16.3344C148.57 16.4922 148.492 16.5711 148.335 16.5711H147.14C146.984 16.5711 146.906 16.4922 146.906 16.3344V15.3638C146.906 15.3322 146.89 15.3086 146.859 15.2928C146.843 15.277 146.82 15.2849 146.789 15.3164C146.398 15.7899 145.891 16.1529 145.266 16.4054C144.641 16.6421 143.946 16.7605 143.18 16.7605C142.071 16.7605 141.141 16.4764 140.392 15.9083C139.642 15.3401 139.267 14.4721 139.267 13.3042C139.267 12.1206 139.689 11.1895 140.532 10.5108C141.391 9.81642 142.579 9.46921 144.094 9.46921H146.812C146.875 9.46921 146.906 9.43765 146.906 9.37452V8.47494C146.906 7.67006 146.679 7.03878 146.226 6.5811C145.789 6.10764 145.102 5.87091 144.164 5.87091C143.414 5.87091 142.805 6.02084 142.337 6.3207C141.868 6.60478 141.579 7.00722 141.47 7.52802C141.423 7.68584 141.329 7.75686 141.188 7.74108L139.923 7.57537C139.751 7.5438 139.681 7.48068 139.712 7.38599C139.837 6.50219 140.306 5.78411 141.118 5.23174C141.93 4.67937 142.946 4.40318 144.164 4.40318ZM143.508 15.3164C144.43 15.3164 145.227 15.0876 145.898 14.6299C146.57 14.1565 146.906 13.5252 146.906 12.7361V10.8896C146.906 10.8265 146.875 10.7949 146.812 10.7949H144.352C143.321 10.7949 142.493 11.008 141.868 11.4341C141.243 11.8602 140.931 12.452 140.931 13.2095C140.931 13.904 141.165 14.4327 141.634 14.7956C142.118 15.1428 142.743 15.3164 143.508 15.3164Z" fill="#252525"/>
<path d="M159.343 4.8293C159.343 4.67148 159.421 4.59257 159.577 4.59257H160.772C160.928 4.59257 161.006 4.67148 161.006 4.8293V16.1687C161.006 17.9363 160.499 19.2304 159.483 20.0511C158.483 20.8717 157.101 21.2821 155.336 21.2821C154.976 21.2821 154.703 21.2742 154.515 21.2584C154.359 21.2426 154.281 21.1558 154.281 20.998L154.328 19.909C154.328 19.8301 154.351 19.767 154.398 19.7196C154.445 19.6881 154.5 19.6802 154.562 19.696L155.195 19.7196C156.648 19.7196 157.702 19.4277 158.358 18.8437C159.015 18.2756 159.343 17.3681 159.343 16.1213V15.2454C159.343 15.2139 159.327 15.1981 159.296 15.1981C159.28 15.1823 159.257 15.1902 159.225 15.2218C158.507 16.1687 157.484 16.6421 156.156 16.6421C155.14 16.6421 154.234 16.366 153.438 15.8136C152.657 15.2612 152.133 14.48 151.868 13.47C151.68 12.8229 151.586 11.8602 151.586 10.5818C151.586 9.88743 151.602 9.3035 151.633 8.83004C151.68 8.35658 151.766 7.93046 151.891 7.5517C152.172 6.60478 152.68 5.84724 153.414 5.27909C154.148 4.69515 155.031 4.40318 156.062 4.40318C157.452 4.40318 158.507 4.86875 159.225 5.79989C159.257 5.83146 159.28 5.83935 159.296 5.82356C159.327 5.80778 159.343 5.78411 159.343 5.75255V4.8293ZM159.225 12.9491C159.272 12.7124 159.304 12.4204 159.319 12.0732C159.335 11.726 159.343 11.221 159.343 10.5582C159.343 9.75329 159.335 9.2167 159.319 8.9484C159.304 8.66433 159.265 8.40393 159.202 8.16719C159.077 7.50435 158.765 6.95987 158.265 6.53376C157.78 6.09186 157.163 5.87091 156.414 5.87091C155.679 5.87091 155.054 6.08397 154.539 6.51008C154.039 6.9362 153.688 7.48857 153.484 8.16719C153.328 8.67222 153.25 9.46132 153.25 10.5345C153.25 11.6866 153.328 12.4836 153.484 12.9255C153.641 13.5883 153.977 14.1407 154.492 14.5826C155.023 15.0087 155.664 15.2218 156.414 15.2218C157.179 15.2218 157.804 15.0087 158.288 14.5826C158.788 14.1565 159.1 13.612 159.225 12.9491Z" fill="#252525"/>
<path d="M173.664 8.56964C173.726 9.01153 173.757 9.5639 173.757 10.2267V10.9843C173.757 11.1421 173.679 11.221 173.523 11.221H165.954C165.892 11.221 165.861 11.2526 165.861 11.3157C165.892 12.1837 165.939 12.744 166.001 12.9965C166.173 13.7067 166.54 14.2669 167.103 14.6773C167.665 15.0876 168.383 15.2928 169.258 15.2928C169.914 15.2928 170.492 15.1428 170.992 14.843C171.492 14.5431 171.883 14.117 172.164 13.5646C172.258 13.4226 172.367 13.391 172.492 13.47L173.406 14.0144C173.531 14.0933 173.562 14.2038 173.5 14.3459C173.109 15.1034 172.523 15.7031 171.742 16.145C170.961 16.5711 170.063 16.7842 169.047 16.7842C167.938 16.7684 167.009 16.5001 166.259 15.9793C165.509 15.4585 164.97 14.7325 164.642 13.8014C164.361 13.0438 164.22 11.9549 164.22 10.5345C164.22 9.87165 164.228 9.33506 164.244 8.92473C164.275 8.49862 164.337 8.11985 164.431 7.78843C164.697 6.7626 165.228 5.94193 166.025 5.32643C166.837 4.71093 167.813 4.40318 168.954 4.40318C170.375 4.40318 171.469 4.76617 172.234 5.49214C173 6.21812 173.476 7.24395 173.664 8.56964ZM168.954 5.87091C168.188 5.87091 167.548 6.07608 167.032 6.48641C166.532 6.88096 166.204 7.41755 166.048 8.09618C165.954 8.4276 165.892 8.96419 165.861 9.70594C165.861 9.76907 165.892 9.80063 165.954 9.80063H172.023C172.086 9.80063 172.117 9.76907 172.117 9.70594C172.086 8.99575 172.039 8.49073 171.976 8.19087C171.805 7.48068 171.453 6.92042 170.922 6.51008C170.407 6.08397 169.75 5.87091 168.954 5.87091Z" fill="#252525"/>
<path d="M189.064 4.42686C190.235 4.42686 191.157 4.78195 191.829 5.49214C192.516 6.20233 192.86 7.17293 192.86 8.40392V16.3344C192.86 16.4922 192.782 16.5711 192.625 16.5711H191.454C191.298 16.5711 191.219 16.4922 191.219 16.3344V8.73535C191.219 7.86734 190.97 7.18082 190.47 6.67579C189.985 6.15499 189.345 5.89458 188.548 5.89458C187.72 5.89458 187.048 6.1471 186.533 6.65212C186.033 7.15715 185.783 7.83577 185.783 8.688V16.3344C185.783 16.4922 185.705 16.5711 185.549 16.5711H184.354C184.197 16.5711 184.119 16.4922 184.119 16.3344V8.73535C184.119 7.86734 183.877 7.18082 183.393 6.67579C182.909 6.15499 182.26 5.89458 181.448 5.89458C180.62 5.89458 179.956 6.1471 179.456 6.65212C178.972 7.15715 178.73 7.83577 178.73 8.688V16.3344C178.73 16.4922 178.652 16.5711 178.496 16.5711H177.3C177.144 16.5711 177.066 16.4922 177.066 16.3344V4.8293C177.066 4.67148 177.144 4.59257 177.3 4.59257H178.496C178.652 4.59257 178.73 4.67148 178.73 4.8293V5.77622C178.73 5.80778 178.738 5.83146 178.753 5.84724C178.785 5.84724 178.816 5.83146 178.847 5.79989C179.191 5.34221 179.628 5.0029 180.159 4.78195C180.706 4.54522 181.307 4.42686 181.964 4.42686C182.776 4.42686 183.471 4.59257 184.049 4.92399C184.627 5.25541 185.064 5.73676 185.361 6.36804C185.393 6.44695 185.432 6.44695 185.478 6.36804C185.822 5.72098 186.306 5.23963 186.931 4.92399C187.556 4.59257 188.267 4.42686 189.064 4.42686Z" fill="#252525"/>
<path d="M205.38 8.56964C205.443 9.01153 205.474 9.5639 205.474 10.2267V10.9843C205.474 11.1421 205.396 11.221 205.24 11.221H197.671C197.608 11.221 197.577 11.2526 197.577 11.3157C197.608 12.1837 197.655 12.744 197.718 12.9965C197.889 13.7067 198.257 14.2669 198.819 14.6773C199.381 15.0876 200.1 15.2928 200.975 15.2928C201.631 15.2928 202.209 15.1428 202.709 14.843C203.209 14.5431 203.599 14.117 203.88 13.5646C203.974 13.4226 204.084 13.391 204.208 13.47L205.122 14.0144C205.247 14.0933 205.279 14.2038 205.216 14.3459C204.826 15.1034 204.24 15.7031 203.459 16.145C202.678 16.5711 201.779 16.7842 200.764 16.7842C199.655 16.7684 198.725 16.5001 197.975 15.9793C197.226 15.4585 196.687 14.7325 196.359 13.8014C196.077 13.0438 195.937 11.9549 195.937 10.5345C195.937 9.87165 195.945 9.33506 195.96 8.92473C195.991 8.49862 196.054 8.11985 196.148 7.78843C196.413 6.7626 196.944 5.94193 197.741 5.32643C198.553 4.71093 199.53 4.40318 200.67 4.40318C202.092 4.40318 203.185 4.76617 203.951 5.49214C204.716 6.21812 205.193 7.24395 205.38 8.56964ZM200.67 5.87091C199.905 5.87091 199.264 6.07608 198.749 6.48641C198.249 6.88096 197.921 7.41755 197.765 8.09618C197.671 8.4276 197.608 8.96419 197.577 9.70594C197.577 9.76907 197.608 9.80063 197.671 9.80063H203.74C203.802 9.80063 203.834 9.76907 203.834 9.70594C203.802 8.99575 203.755 8.49073 203.693 8.19087C203.521 7.48068 203.17 6.92042 202.639 6.51008C202.123 6.08397 201.467 5.87091 200.67 5.87091Z" fill="#252525"/>
<path d="M213.703 4.42686C214.953 4.42686 215.945 4.79773 216.679 5.53949C217.429 6.28124 217.804 7.27551 217.804 8.52229V16.3344C217.804 16.4922 217.726 16.5711 217.57 16.5711H216.375C216.219 16.5711 216.14 16.4922 216.14 16.3344V8.85371C216.14 7.9857 215.875 7.27551 215.344 6.72314C214.828 6.17077 214.157 5.89458 213.329 5.89458C212.469 5.89458 211.774 6.16288 211.243 6.69947C210.712 7.23606 210.446 7.93836 210.446 8.80637V16.3344C210.446 16.4922 210.368 16.5711 210.212 16.5711H209.017C208.861 16.5711 208.783 16.4922 208.783 16.3344V4.8293C208.783 4.67148 208.861 4.59257 209.017 4.59257H210.212C210.368 4.59257 210.446 4.67148 210.446 4.8293V5.84724C210.446 5.8788 210.454 5.90248 210.47 5.91826C210.501 5.93404 210.524 5.92615 210.54 5.89458C211.227 4.9161 212.282 4.42686 213.703 4.42686Z" fill="#252525"/>
<path d="M226.734 5.75255C226.734 5.91037 226.655 5.98928 226.499 5.98928H223.851C223.789 5.98928 223.758 6.02084 223.758 6.08397V13.0675C223.758 13.825 223.922 14.3616 224.25 14.6773C224.593 14.9771 225.124 15.1271 225.843 15.1271H226.429C226.585 15.1271 226.663 15.206 226.663 15.3638V16.3344C226.663 16.4922 226.585 16.5711 226.429 16.5711C226.241 16.5869 225.952 16.5948 225.562 16.5948C224.437 16.5948 223.586 16.3817 223.008 15.9556C222.43 15.5295 222.141 14.7404 222.141 13.5883V6.08397C222.141 6.02084 222.109 5.98928 222.047 5.98928H220.618C220.461 5.98928 220.383 5.91037 220.383 5.75255V4.8293C220.383 4.67148 220.461 4.59257 220.618 4.59257H222.047C222.109 4.59257 222.141 4.561 222.141 4.49787V1.7518C222.141 1.59398 222.219 1.51507 222.375 1.51507H223.523C223.679 1.51507 223.758 1.59398 223.758 1.7518V4.49787C223.758 4.561 223.789 4.59257 223.851 4.59257H226.499C226.655 4.59257 226.734 4.67148 226.734 4.8293V5.75255Z" fill="#252525"/>
</svg>
