<svg width="84" height="42" viewBox="0 0 84 42" fill="none" xmlns="http://www.w3.org/2000/svg">
<path d="M5.959 6.96501C7.83089 15.0172 12.3759 22.1975 18.8528 27.3347C25.3296 32.472 33.356 35.2631 41.6229 35.2528C49.8897 35.2425 57.9092 32.4313 64.3732 27.2779C70.8372 22.1244 75.3642 14.9328 77.216 6.87601L83.175 9.04501C80.8644 18.3209 75.5198 26.5584 67.9905 32.4483C60.4612 38.3383 51.1793 41.5426 41.6199 41.5522C32.0605 41.5617 22.7722 38.3759 15.2312 32.501C7.69018 26.6261 2.32909 18.3993 0 9.12801L5.959 6.96501Z" fill="#FF6B0D"/>
<path d="M64.264 2.161C63.4355 7.57481 60.698 12.5138 56.5462 16.0857C52.3944 19.6575 47.102 21.6267 41.6251 21.6374C36.1483 21.6482 30.8482 19.6998 26.6824 16.1443C22.5166 12.5887 19.7598 7.66052 18.91 2.25L24.326 0.279C26.2596 3.06322 28.8388 5.33761 31.8431 6.90758C34.8474 8.47755 38.1872 9.29638 41.577 9.294C44.9842 9.29662 48.3407 8.46941 51.3565 6.8839C54.3723 5.29838 56.9566 3.00225 58.886 0.194L64.264 2.161Z" fill="#FF6B0D"/>
</svg>
