<svg width="505" height="377" viewBox="0 0 505 377" fill="none" xmlns="http://www.w3.org/2000/svg">
<path d="M505 331.302H0V331.555H505V331.302Z" fill="#E0E0E0"/>
<path d="M122.119 342.929H108.787V343.182H122.119V342.929Z" fill="#E0E0E0"/>
<path d="M101.384 343.05H81.1635V343.304H101.384V343.05Z" fill="#E0E0E0"/>
<path d="M221.18 341.35H168.67V341.604H221.18V341.35Z" fill="#E0E0E0"/>
<path d="M241.39 338.618H213.211V338.871H241.39V338.618Z" fill="#E0E0E0"/>
<path d="M404.434 346.622H338.683V346.876H404.434V346.622Z" fill="#E0E0E0"/>
<path d="M333.078 346.622H316.898V346.876H333.078V346.622Z" fill="#E0E0E0"/>
<path d="M422.857 340.51H393.941V340.764H422.857V340.51Z" fill="#E0E0E0"/>
<path d="M239.37 286.17H44.349C42.8213 286.168 41.357 285.558 40.2776 284.474C39.1983 283.391 38.592 281.923 38.592 280.392V5.72745C38.6053 4.20555 39.2174 2.75037 40.2953 1.67798C41.3733 0.60559 42.83 0.00260709 44.349 0H239.37C240.9 0 242.366 0.608757 243.448 1.69235C244.529 2.77595 245.137 4.24561 245.137 5.77805V280.392C245.137 281.925 244.529 283.394 243.448 284.478C242.366 285.562 240.9 286.17 239.37 286.17ZM44.349 0.202384C42.8882 0.205065 41.4882 0.78835 40.4562 1.82421C39.4242 2.86007 38.8445 4.26386 38.8445 5.72745V280.392C38.8445 281.856 39.4242 283.26 40.4562 284.295C41.4882 285.331 42.8882 285.915 44.349 285.917H239.37C240.832 285.915 242.233 285.332 243.266 284.296C244.3 283.26 244.882 281.857 244.885 280.392V5.72745C244.882 4.26293 244.3 2.85917 243.266 1.82359C242.233 0.788021 240.832 0.205059 239.37 0.202384H44.349Z" fill="#E0E0E0"/>
<path d="M457.843 286.17H262.812C261.284 286.168 259.818 285.558 258.737 284.475C257.656 283.392 257.048 281.924 257.045 280.392V5.72745C257.061 4.20463 257.675 2.74946 258.755 1.67735C259.834 0.605237 261.292 0.00257866 262.812 0H457.843C459.361 0.00526652 460.815 0.609426 461.89 1.68153C462.966 2.75364 463.577 4.2073 463.59 5.72745V280.392C463.59 281.921 462.985 283.388 461.908 284.471C460.831 285.554 459.369 286.165 457.843 286.17ZM262.812 0.202384C261.351 0.205059 259.949 0.788021 258.916 1.82359C257.882 2.85917 257.3 4.26293 257.298 5.72745V280.392C257.3 281.857 257.882 283.26 258.916 284.296C259.949 285.332 261.351 285.915 262.812 285.917H457.843C459.305 285.915 460.706 285.332 461.74 284.296C462.773 283.26 463.355 281.857 463.358 280.392V5.72745C463.355 4.26293 462.773 2.85917 461.74 1.82359C460.706 0.788021 459.305 0.205059 457.843 0.202384H262.812Z" fill="#E0E0E0"/>
<path d="M63.4881 331.302H91.2631L91.2631 224.99H63.4881L63.4881 331.302Z" fill="#E0E0E0"/>
<path d="M68.771 331.302H63.4988V316.265H74.3058L68.771 331.302Z" fill="#EBEBEB"/>
<path d="M221.988 331.302H249.763V224.99H221.988V331.302Z" fill="#E0E0E0"/>
<path d="M63.4888 322.073H226.584V224.99H63.4888V322.073Z" fill="#EBEBEB"/>
<path d="M172.821 229.908V303.272H221.17V229.908H172.821Z" fill="#E0E0E0"/>
<path d="M192.213 234.117H201.778C203.833 234.118 205.868 233.699 207.757 232.887C209.646 232.074 211.351 230.885 212.766 229.392H181.224C182.64 230.885 184.344 232.074 186.233 232.887C188.123 233.699 190.157 234.118 192.213 234.117Z" fill="#EBEBEB"/>
<path d="M120.867 229.908V303.272H169.215V229.908H120.867Z" fill="#E0E0E0"/>
<path d="M139.774 234.117H149.339C151.393 234.116 153.425 233.697 155.313 232.885C157.2 232.072 158.903 230.884 160.317 229.392H128.785C130.201 230.885 131.905 232.074 133.794 232.887C135.684 233.699 137.718 234.118 139.774 234.117Z" fill="#EBEBEB"/>
<path d="M68.9124 229.918V303.282H117.261V229.918H68.9124Z" fill="#E0E0E0"/>
<path d="M87.87 234.117H97.4348C99.4906 234.118 101.525 233.699 103.414 232.887C105.303 232.074 107.008 230.885 108.424 229.392H76.8307C78.2524 230.891 79.9649 232.084 81.8633 232.897C83.7616 233.709 85.8057 234.125 87.87 234.117Z" fill="#EBEBEB"/>
<path d="M221.321 331.302H226.593V316.265H215.786L221.321 331.302Z" fill="#EBEBEB"/>
<path d="M287.204 162.807L440.219 162.807V19.2163L287.204 19.2163V162.807Z" fill="#E0E0E0"/>
<path d="M281.709 162.807L437.653 162.807V19.2163L281.709 19.2163V162.807Z" fill="#EBEBEB"/>
<path d="M287.204 173.028L440.219 173.028V162.797L287.204 162.797V173.028Z" fill="#E0E0E0"/>
<path d="M272.559 173.028L428.503 173.028V162.797L272.559 162.797V173.028Z" fill="#EBEBEB"/>
<path d="M429.967 155.097V26.9271L289.405 26.9271V155.097H429.967Z" fill="#F5F5F5"/>
<path d="M415.241 155.097L370.084 26.9271H348.773L393.93 155.097H415.241Z" fill="#FAFAFA"/>
<path d="M426.402 111.614C426.255 111.614 426.114 111.556 426.009 111.451C425.905 111.347 425.847 111.206 425.847 111.058V31.9361C425.849 31.7902 425.909 31.6513 426.013 31.5491C426.117 31.4469 426.257 31.3896 426.402 31.3896C426.547 31.3896 426.686 31.4472 426.788 31.5497C426.89 31.6522 426.948 31.7912 426.948 31.9361V111.058C426.948 111.204 426.89 111.344 426.788 111.448C426.686 111.552 426.548 111.612 426.402 111.614Z" fill="#EBEBEB"/>
<path d="M389.345 155.097L344.188 26.9271H335.886L381.033 155.097H389.345Z" fill="#FAFAFA"/>
<path d="M290.375 155.097V26.9271H289.395V155.097H290.375Z" fill="#E0E0E0"/>
<path d="M279.891 36.7832H432.906L433.613 29.9224H280.598L279.891 36.7832Z" fill="#E0E0E0"/>
<path d="M279.891 41.8124H432.906L433.613 34.9415H280.598L279.891 41.8124Z" fill="#E0E0E0"/>
<path d="M279.891 47.8435H432.906L433.613 40.9726H280.598L279.891 47.8435Z" fill="#E0E0E0"/>
<path d="M279.891 54.5525H432.906L433.613 47.6917H280.598L279.891 54.5525Z" fill="#E0E0E0"/>
<path d="M279.891 62.5972H432.906L433.613 55.7263H280.598L279.891 62.5972Z" fill="#E0E0E0"/>
<path d="M279.891 71.6337H432.906L433.613 64.7729H280.598L279.891 71.6337Z" fill="#E0E0E0"/>
<path d="M278.255 331.302H323.543V235.979H278.255V331.302Z" fill="#E0E0E0"/>
<path d="M282.8 331.302H278.255V318.319H287.577L282.8 331.302Z" fill="#EBEBEB"/>
<path d="M389.658 331.302H434.946V235.979H389.658V331.302Z" fill="#E0E0E0"/>
<path d="M278.255 323.338H393.627V235.979H278.255V323.338Z" fill="#EBEBEB"/>
<path d="M281.78 263.807H390.092V239.845H281.78V263.807Z" fill="#E0E0E0"/>
<path d="M330.825 247.292H341.057C345.501 247.292 349.743 244.338 352.803 239.116H319.069C322.129 244.338 326.381 247.292 330.825 247.292Z" fill="#EBEBEB"/>
<path d="M389.072 331.302H393.628V318.319H384.295L389.072 331.302Z" fill="#EBEBEB"/>
<path d="M281.78 291.635H390.092V267.672H281.78V291.635Z" fill="#E0E0E0"/>
<path d="M330.825 275.12H341.057C345.501 275.12 349.743 272.165 352.803 266.944H319.069C322.129 272.206 326.381 275.12 330.825 275.12Z" fill="#EBEBEB"/>
<path d="M281.78 319.462H390.092V295.5H281.78V319.462Z" fill="#E0E0E0"/>
<path d="M330.825 302.948H341.057C345.501 302.948 349.743 299.993 352.803 294.772H319.069C322.129 299.993 326.381 302.948 330.825 302.948Z" fill="#EBEBEB"/>
<path d="M95.7886 156.746H183.719L183.719 38.9183L95.7886 38.9183L95.7886 156.746Z" fill="#E0E0E0"/>
<path d="M89.6775 156.746H182.093L182.093 38.9183L89.6775 38.9183L89.6775 156.746Z" fill="#EBEBEB"/>
<path d="M174.356 148.995V46.6798L97.4247 46.6798V148.995H174.356Z" fill="#FAFAFA"/>
<path d="M137.138 117.382H117.16C116.962 117.382 116.772 117.304 116.631 117.163C116.491 117.023 116.413 116.832 116.413 116.634V96.5875C116.429 91.7617 118.349 87.138 121.755 83.7256C125.161 80.3132 129.776 78.389 134.593 78.373H154.56C154.658 78.373 154.756 78.3924 154.846 78.43C154.937 78.4677 155.019 78.5228 155.089 78.5924C155.158 78.6619 155.213 78.7444 155.251 78.8353C155.288 78.9261 155.308 79.0235 155.308 79.1218V99.1275C155.302 103.959 153.388 108.591 149.983 112.012C146.578 115.433 141.96 117.364 137.138 117.382ZM117.948 115.895H137.138C141.574 115.89 145.826 114.121 148.962 110.977C152.098 107.834 153.861 103.572 153.863 99.1275V79.901H134.673C130.238 79.9064 125.986 81.6733 122.849 84.8144C119.712 87.9556 117.946 92.2148 117.938 96.6584L117.948 115.895Z" fill="#EBEBEB"/>
<path d="M216.14 177.764H140.501L129.533 222.521H205.171L216.14 177.764Z" fill="#E0E0E0"/>
<path d="M205.171 222.521L204.868 224.99H129.229L129.532 222.521H205.171Z" fill="#E0E0E0"/>
<path d="M213.807 177.764H138.168L127.21 222.521H202.848L213.807 177.764Z" fill="#F0F0F0"/>
<path d="M201.243 220.477L211.211 179.808H139.774L129.805 220.477H201.243Z" fill="#FAFAFA"/>
<path d="M183.134 222.521L182.831 224.99H99.5358L99.8489 222.521H183.134Z" fill="#F0F0F0"/>
<path d="M385.739 228.127H384.537C384.537 225.637 384.537 219.323 384.416 204.853C384.194 178.624 383.78 177.025 383.78 177.025L386.648 189.168C388.476 202.545 386.123 216.014 385.739 228.127Z" fill="#E0E0E0"/>
<path d="M391.092 184.655C397.415 178.391 409.747 177.571 422.352 177.035C427.301 176.822 408.535 186.345 399.122 193.479C391.819 199.014 387.355 200.319 384.931 206.3C384.699 198.538 385.648 190.048 391.092 184.655Z" fill="#E0E0E0"/>
<path d="M384.143 171.014C379.861 162.868 369.084 155.188 356.994 152.273C352.247 151.13 367.993 167.331 373.972 177.774C378.628 185.869 384.789 195.422 385.749 202.272C387.193 188.723 388.425 179.19 384.143 171.014Z" fill="#E0E0E0"/>
<path d="M384.699 235.969C386.726 235.97 388.677 235.193 390.151 233.799C391.625 232.405 392.511 230.499 392.627 228.471L393.324 221.276H376.063L376.77 228.471C376.887 230.499 377.773 232.405 379.247 233.799C380.721 235.193 382.672 235.97 384.699 235.969Z" fill="#EBEBEB"/>
<path d="M374.953 224.049H394.446L395.001 216.034H374.387L374.953 224.049Z" fill="#EBEBEB"/>
<path d="M252.5 377C360.654 377 448.329 371.871 448.329 365.545C448.329 359.219 360.654 354.09 252.5 354.09C144.347 354.09 56.6714 359.219 56.6714 365.545C56.6714 371.871 144.347 377 252.5 377Z" fill="#F5F5F5"/>
<path d="M145.541 149.106H97.0311V365.363H145.541V149.106Z" fill="#FF6B0D"/>
<path opacity="0.7" d="M145.541 149.106H97.0311V365.363H145.541V149.106Z" fill="#FAFAFA"/>
<path d="M219.756 77.6241H171.246V365.353H219.756V77.6241Z" fill="#FF6B0D"/>
<path opacity="0.1" d="M219.756 77.6241H171.246V365.353H219.756V77.6241Z" fill="black"/>
<path d="M293.981 149.106H245.471V365.363H293.981V149.106Z" fill="#FF6B0D"/>
<path opacity="0.4" d="M293.981 149.106H245.471V365.363H293.981V149.106Z" fill="black"/>
<path d="M128.331 149.106H79.8204V365.363H128.331V149.106Z" fill="#FF6B0D"/>
<path opacity="0.8" d="M128.331 149.106H79.8204V365.363H128.331V149.106Z" fill="#FAFAFA"/>
<path d="M202.556 77.6241H154.046V365.353H202.556V77.6241Z" fill="#FF6B0D"/>
<path opacity="0.2" d="M202.556 77.6241H154.046V365.353H202.556V77.6241Z" fill="#FAFAFA"/>
<path d="M276.771 149.106H228.26V365.363H276.771V149.106Z" fill="#FF6B0D"/>
<path opacity="0.2" d="M276.771 149.106H228.26V365.363H276.771V149.106Z" fill="black"/>
<path d="M458.217 266.134H457.207C457.182 247.48 452.054 229.19 442.38 213.251L443.249 212.725C453.014 228.824 458.191 247.296 458.217 266.134ZM436.764 204.974C433.915 201.197 430.803 197.627 427.452 194.288L428.169 193.58C431.557 196.96 434.699 200.579 437.572 204.407L436.764 204.974Z" fill="#FF6B0D"/>
<path opacity="0.3" d="M458.217 266.134H457.207C457.182 247.48 452.054 229.19 442.38 213.251L443.249 212.725C453.014 228.824 458.191 247.296 458.217 266.134ZM436.764 204.974C433.915 201.197 430.803 197.627 427.452 194.288L428.169 193.58C431.557 196.96 434.699 200.579 437.572 204.407L436.764 204.974Z" fill="black"/>
<path d="M425.675 196.029C407.105 177.431 381.927 166.978 355.671 166.966H341.38V168.029C328.988 169.841 317.052 173.988 306.202 180.253C259.156 207.443 242.784 268.613 269.922 315.718C277.397 328.697 287.709 339.81 300.086 348.223C312.462 356.636 326.58 362.129 341.38 364.29V365.302H355.692C375.276 365.312 394.423 359.5 410.71 348.603C426.996 337.705 439.69 322.212 447.185 304.084C454.68 285.956 456.638 266.008 452.813 246.764C448.987 227.52 439.55 209.846 425.695 195.978L425.675 196.029ZM355.671 339.478C341.197 339.48 327.048 335.182 315.012 327.127C302.976 319.072 293.594 307.623 288.052 294.226C282.511 280.829 281.059 266.087 283.88 251.863C286.701 237.64 293.669 224.574 303.901 214.318C314.134 204.061 327.172 197.075 341.368 194.243C355.563 191.411 370.278 192.859 383.652 198.406C397.025 203.952 408.457 213.347 416.502 225.402C424.546 237.458 428.842 251.633 428.846 266.134C428.871 275.77 426.996 285.317 423.328 294.225C419.66 303.133 414.271 311.227 407.472 318.042C400.672 324.857 392.596 330.259 383.706 333.938C374.817 337.617 365.289 339.499 355.671 339.478Z" fill="#FF6B0D"/>
<path opacity="0.3" d="M425.675 196.029C407.105 177.431 381.927 166.978 355.671 166.966H341.38V168.029C328.988 169.841 317.052 173.988 306.202 180.253C259.156 207.443 242.784 268.613 269.922 315.718C277.397 328.697 287.709 339.81 300.086 348.223C312.462 356.636 326.58 362.129 341.38 364.29V365.302H355.692C375.276 365.312 394.423 359.5 410.71 348.603C426.996 337.705 439.69 322.212 447.185 304.084C454.68 285.956 456.638 266.008 452.813 246.764C448.987 227.52 439.55 209.846 425.695 195.978L425.675 196.029ZM355.671 339.478C341.197 339.48 327.048 335.182 315.012 327.127C302.976 319.072 293.594 307.623 288.052 294.226C282.511 280.829 281.059 266.087 283.88 251.863C286.701 237.64 293.669 224.574 303.901 214.318C314.134 204.061 327.172 197.075 341.368 194.243C355.563 191.411 370.278 192.859 383.652 198.406C397.025 203.952 408.457 213.347 416.502 225.402C424.546 237.458 428.842 251.633 428.846 266.134C428.871 275.77 426.996 285.317 423.328 294.225C419.66 303.133 414.271 311.227 407.472 318.042C400.672 324.857 392.596 330.259 383.706 333.938C374.817 337.617 365.289 339.499 355.671 339.478Z" fill="black"/>
<path d="M414.534 266.134H440.36C440.379 287.981 433.198 309.222 419.931 326.559C406.664 343.896 388.054 356.359 366.992 362.012C345.929 367.665 323.593 366.191 303.453 357.82C283.312 349.449 266.494 334.649 255.611 315.718L277.992 302.776C286.042 316.757 298.472 327.686 313.354 333.867C328.236 340.048 344.738 341.134 360.299 336.958C375.861 332.782 389.612 323.577 399.418 310.771C409.224 297.965 414.538 282.275 414.534 266.134Z" fill="#FF6B0D"/>
<path opacity="0.2" d="M414.534 266.134H440.36C440.379 287.981 433.198 309.222 419.931 326.559C406.664 343.896 388.054 356.359 366.992 362.012C345.929 367.665 323.593 366.191 303.453 357.82C283.312 349.449 266.494 334.649 255.611 315.718L277.992 302.776C286.042 316.757 298.472 327.686 313.354 333.867C328.236 340.048 344.738 341.134 360.299 336.958C375.861 332.782 389.612 323.577 399.418 310.771C409.224 297.965 414.538 282.275 414.534 266.134Z" fill="#FAFAFA"/>
<path d="M341.38 166.966C367.626 166.982 392.793 177.436 411.352 196.03C429.911 214.624 440.344 239.838 440.36 266.134H414.534C414.524 246.699 406.813 228.063 393.096 214.32C379.379 200.577 360.778 192.852 341.38 192.841V166.966Z" fill="#FF6B0D"/>
<path d="M341.38 166.966V192.841C328.536 192.837 315.916 196.222 304.791 202.654C293.667 209.087 284.428 218.341 278.005 229.485C271.583 240.63 268.202 253.273 268.203 266.142C268.205 279.011 271.588 291.653 278.013 302.796L255.611 315.718C228.472 268.593 244.834 207.443 291.87 180.233C306.928 171.539 324.002 166.964 341.38 166.966Z" fill="#FF6B0D"/>
<path opacity="0.8" d="M341.38 166.966V192.841C328.536 192.837 315.916 196.222 304.791 202.654C293.667 209.087 284.428 218.341 278.005 229.485C271.583 240.63 268.202 253.273 268.203 266.142C268.205 279.011 271.588 291.653 278.013 302.796L255.611 315.718C228.472 268.593 244.834 207.443 291.87 180.233C306.928 171.539 324.002 166.964 341.38 166.966Z" fill="#FAFAFA"/>
<path d="M317.109 236.212L309.171 240.867L297.202 223.168L305.141 218.513L317.109 236.212Z" fill="#E4897B"/>
<path d="M304.758 235.838L313.464 230.282C313.612 230.182 313.792 230.14 313.969 230.165C314.146 230.189 314.307 230.277 314.423 230.414L319.807 236.688C319.935 236.851 320.029 237.039 320.08 237.24C320.132 237.441 320.141 237.651 320.107 237.856C320.072 238.061 319.996 238.257 319.881 238.43C319.767 238.604 319.618 238.751 319.443 238.863C316.413 240.745 314.797 241.504 310.969 243.923C308.606 245.42 303.899 248.78 300.637 250.865C297.375 252.949 295.163 249.853 296.334 248.669C301.576 243.477 302.818 240.148 303.768 237.113C303.943 236.587 304.292 236.137 304.758 235.838Z" fill="#263238"/>
<path d="M300.768 239.733H300.535C300.35 239.701 300.175 239.624 300.026 239.51C299.877 239.395 299.757 239.246 299.677 239.076C299.622 238.98 299.593 238.872 299.593 238.762C299.593 238.652 299.622 238.544 299.677 238.448C300.283 237.345 304.343 236.961 304.808 236.92C304.84 236.916 304.872 236.923 304.899 236.939C304.927 236.956 304.948 236.981 304.959 237.011C304.978 237.036 304.988 237.066 304.988 237.097C304.988 237.129 304.978 237.159 304.959 237.183C303.909 238.155 302.061 239.733 300.768 239.733ZM304.384 237.264C302.97 237.426 300.344 237.861 299.95 238.59C299.919 238.64 299.903 238.698 299.903 238.757C299.903 238.816 299.919 238.874 299.95 238.924C300.006 239.052 300.094 239.164 300.205 239.249C300.317 239.334 300.448 239.389 300.586 239.41C301.364 239.541 302.768 238.742 304.384 237.264Z" fill="#FF6B0D"/>
<path d="M304.303 237.254C302.96 237.254 300.768 236.768 300.414 235.949C300.323 235.736 300.303 235.412 300.748 235.068C300.909 234.935 301.097 234.838 301.299 234.782C301.501 234.726 301.712 234.713 301.919 234.745C303.384 234.937 304.879 236.89 304.949 236.971C304.964 236.994 304.971 237.02 304.971 237.047C304.971 237.074 304.964 237.1 304.949 237.123C304.942 237.147 304.927 237.169 304.907 237.185C304.887 237.201 304.863 237.211 304.838 237.214C304.661 237.243 304.482 237.257 304.303 237.254ZM301.697 235.038C301.42 235.037 301.152 235.134 300.94 235.311C300.586 235.584 300.667 235.767 300.697 235.827C300.97 236.465 303.192 237.021 304.525 236.94C303.861 236.049 302.936 235.388 301.879 235.048L301.697 235.038Z" fill="#FF6B0D"/>
<path d="M338.966 98.662C338.815 99.4614 338.694 100.028 338.542 100.686L338.067 102.558C337.734 103.803 337.381 105.017 337.057 106.231C336.29 108.65 335.441 111.017 334.542 113.315C333.644 115.612 332.654 117.969 331.634 120.246C331.129 121.39 330.624 122.513 330.038 123.636L329.624 124.486L329.391 124.952C329.28 125.184 329.159 125.417 329.028 125.64C328.538 126.474 327.944 127.243 327.26 127.927C326.074 129.085 324.71 130.045 323.22 130.77C321.92 131.408 320.569 131.937 319.18 132.349C316.636 133.089 314.029 133.597 311.393 133.867C306.357 134.391 301.28 134.391 296.243 133.867L296.324 129.111C298.627 128.858 301.031 128.595 303.394 128.2C305.758 127.805 308.03 127.411 310.272 126.884C312.444 126.381 314.571 125.704 316.635 124.861C318.327 124.272 319.861 123.303 321.12 122.027C321.283 121.836 321.416 121.621 321.513 121.39L322.029 120.064C322.473 118.961 322.887 117.848 323.301 116.735C324.15 114.519 324.917 112.272 325.695 110.046C326.473 107.82 327.18 105.563 327.826 103.317C328.169 102.194 328.493 101.08 328.836 99.9674L329.27 98.2977L329.644 96.7596L338.966 98.662Z" fill="#E4897B"/>
<path d="M332.552 86.8327C328.765 87.8446 326.108 103.418 326.108 103.418L336.552 110.501C336.552 110.501 346.561 94.7459 343.622 90.5768C340.612 86.2559 338.077 85.4261 332.552 86.8327Z" fill="#FF6B0D"/>
<path opacity="0.6" d="M332.552 86.8327C328.765 87.8446 326.108 103.418 326.108 103.418L336.552 110.501C336.552 110.501 346.561 94.7459 343.622 90.5768C340.612 86.2559 338.077 85.4261 332.552 86.8327Z" fill="#FAFAFA"/>
<path d="M332.209 92.5096L340.289 94.3917L341.067 102.335C339.692 105.143 338.175 107.879 336.522 110.532L330.27 106.251C330.492 102.568 331.179 94.9786 332.209 92.5096Z" fill="#FF6B0D"/>
<path opacity="0.3" d="M332.209 92.5096L340.289 94.3917L341.067 102.335C339.692 105.143 338.175 107.879 336.522 110.532L330.27 106.251C330.492 102.568 331.179 94.9786 332.209 92.5096Z" fill="#FAFAFA"/>
<path d="M297.657 129.1L291.142 122.442L290.284 131.772C290.284 131.772 295.172 135.081 298.556 133.3L297.657 129.1Z" fill="#E4897B"/>
<path d="M283.476 121.491L283.173 129.343L290.284 131.812L291.132 122.483L283.476 121.491Z" fill="#E4897B"/>
<path d="M281.477 238.732L274.952 232.245L287.83 215.012L294.355 221.489L281.477 238.732Z" fill="#E4897B"/>
<path d="M278.609 227.682L288.022 231.952C288.186 232.02 288.318 232.147 288.393 232.308C288.468 232.469 288.48 232.653 288.426 232.822L286.133 240.766C286.068 240.964 285.962 241.146 285.822 241.3C285.682 241.454 285.511 241.577 285.321 241.661C285.13 241.745 284.924 241.788 284.716 241.787C284.508 241.786 284.303 241.742 284.113 241.656C280.861 240.108 279.366 239.197 275.225 237.325C272.68 236.172 266.034 233.47 262.519 231.881C259.004 230.292 260.388 226.72 261.994 227.064C269.205 228.633 273.932 228.42 276.982 227.56C277.522 227.411 278.097 227.454 278.609 227.682Z" fill="#263238"/>
<path d="M297.213 223.168L303.384 232.296L311.323 227.641L305.152 218.524L297.213 223.168Z" fill="#CE6F64"/>
<path d="M294.355 221.489L287.82 215.012L281.184 223.897L287.719 230.383L294.355 221.489Z" fill="#CE6F64"/>
<path d="M374.276 142.427H336.906C328.129 88.3809 332.512 86.8428 332.512 86.8428C332.512 86.8428 338.522 85.6082 344.814 84.8189C345.895 84.6874 346.976 84.566 348.046 84.4648C353.692 84.0596 359.359 84.0596 365.004 84.4648C366.075 84.5154 367.145 84.5963 368.196 84.6874C372.446 85.0731 376.671 85.6981 380.851 86.5594C373.629 117.818 373.7 127.198 374.276 142.427Z" fill="#FF6B0D"/>
<path opacity="0.6" d="M374.276 142.427H336.906C328.129 88.3809 332.512 86.8428 332.512 86.8428C332.512 86.8428 338.522 85.6082 344.814 84.8189C345.895 84.6874 346.976 84.566 348.046 84.4648C353.692 84.0596 359.359 84.0596 365.004 84.4648C366.075 84.5154 367.145 84.5963 368.196 84.6874C372.446 85.0731 376.671 85.6981 380.851 86.5594C373.629 117.818 373.7 127.198 374.276 142.427Z" fill="#FAFAFA"/>
<path d="M368.236 84.6975L367.832 85.6487C367.62 86.1749 362.418 98.4191 352.339 106.595L349.874 108.619L347.985 106.059C342.319 98.3685 344.016 88.3708 344.854 84.8594C345.935 84.7279 347.016 84.6065 348.086 84.5053C353.732 84.1001 359.399 84.1001 365.044 84.5053C366.115 84.5255 367.186 84.6065 368.236 84.6975Z" fill="#FF6B0D"/>
<path opacity="0.1" d="M368.236 84.6975L367.832 85.6487C367.62 86.1749 362.418 98.4191 352.339 106.595L349.874 108.619L347.985 106.059C342.319 98.3685 344.016 88.3708 344.854 84.8594C345.935 84.7279 347.016 84.6065 348.086 84.5053C353.732 84.1001 359.399 84.1001 365.044 84.5053C366.115 84.5255 367.186 84.6065 368.236 84.6975Z" fill="#FAFAFA"/>
<path d="M346.258 37.8862C338.097 34.2332 333.189 48.1268 333.744 57.9627C334.3 67.7985 335.764 79.8605 331.462 77.8367C327.159 75.8129 330.209 72.7771 330.209 72.7771C330.209 72.7771 324.149 77.5837 331.027 80.2248C337.905 82.8659 350.137 82.613 357.287 79.2129C361.378 73.0301 359.62 49.9179 359.62 49.9179L346.258 37.8862Z" fill="#263238"/>
<path d="M363.358 65.3496C362.297 70.814 361.226 80.832 365.044 84.4749C365.044 84.4749 359.994 96.4459 350.43 104.228C344.43 96.0816 348.086 84.4749 348.086 84.4749C354.146 83.0177 354.015 78.4945 352.955 74.2545L363.358 65.3496Z" fill="#E4897B"/>
<path d="M359.116 68.9825L352.955 74.2444C353.222 75.2381 353.398 76.2543 353.48 77.2802C355.803 76.9462 358.995 74.3861 359.247 71.9474C359.386 70.9594 359.341 69.9542 359.116 68.9825Z" fill="#CE6F64"/>
<path d="M364.004 50.9501C365.014 60.0573 365.69 63.852 361.984 69.2658C356.409 77.4218 345.046 76.7337 341.309 68.1527C337.946 60.4317 336.784 46.9024 344.925 41.7315C346.714 40.5859 348.765 39.9178 350.884 39.7909C353.004 39.664 355.12 40.0824 357.032 41.0063C358.944 41.9303 360.589 43.329 361.809 45.0695C363.029 46.81 363.785 48.8344 364.004 50.9501Z" fill="#E4897B"/>
<path d="M345.935 44.6964C349.198 48.5316 359.065 59.693 365.953 58.246C373.023 56.7585 373.266 43.5732 364.741 38.119C356.217 32.6647 337.179 34.4052 345.935 44.6964Z" fill="#263238"/>
<path d="M366.368 28.6879C359.873 26.5325 359.298 32.8874 359.803 36.844L367.782 42.7232C370.331 42.3201 372.8 41.5104 375.094 40.3249C378.225 38.5339 372.862 30.8433 366.368 28.6879Z" fill="#263238"/>
<path d="M367.832 58.7519C367.644 60.5028 366.803 62.1181 365.478 63.2752C363.701 64.783 361.933 63.4472 361.681 61.2514C361.458 59.2883 362.115 56.1918 364.256 55.4733C366.397 54.7549 368.034 56.6067 367.832 58.7519Z" fill="#E4897B"/>
<path d="M300.485 182.145C300.212 190.362 302.717 200.36 305.464 208.698C306.05 210.479 306.646 212.189 307.232 213.757C309.737 220.598 311.979 225.364 311.979 225.364L300.98 231.638C300.98 231.638 299.485 229.756 297.283 226.447C296.273 224.99 295.203 223.239 294.021 221.256C287.86 210.934 279.8 194.066 279.417 176.114C278.811 148.023 336.926 142.427 336.926 142.427H364.408L356.712 164.335C356.712 164.335 300.98 167.199 300.485 182.145Z" fill="#FF6B0D"/>
<path opacity="0.6" d="M300.485 182.145C300.212 190.362 302.717 200.36 305.464 208.698C306.05 210.479 306.646 212.189 307.232 213.757C309.737 220.598 311.979 225.364 311.979 225.364L300.98 231.638C300.98 231.638 299.485 229.756 297.283 226.447C296.273 224.99 295.203 223.239 294.021 221.256C287.86 210.934 279.8 194.066 279.417 176.114C278.811 148.023 336.926 142.427 336.926 142.427H364.408L356.712 164.335C356.712 164.335 300.98 167.199 300.485 182.145Z" fill="black"/>
<path d="M307.232 213.808C305.797 216.196 301.919 222.278 297.303 226.447C296.293 224.99 295.223 223.239 294.041 221.256L305.464 208.728C306.03 210.479 306.646 212.219 307.232 213.808Z" fill="#263238"/>
<path d="M316.695 158.871L315.524 170.812C307.444 173.362 301.141 176.883 300.525 181.599C299.152 171.014 306.504 164.801 316.695 158.871Z" fill="#263238"/>
<path d="M346.803 142.417C346.803 142.417 312.403 156.483 307.161 172.026C300.475 191.86 282.295 219.89 282.295 219.89L289.93 229.847C289.93 229.847 310.918 209.467 325.22 186.132C343.137 156.787 386.305 187.782 374.326 142.417H346.803Z" fill="#FF6B0D"/>
<path opacity="0.6" d="M346.803 142.417C346.803 142.417 312.403 156.483 307.161 172.026C300.475 191.86 282.295 219.89 282.295 219.89L289.93 229.847C289.93 229.847 310.918 209.467 325.22 186.132C343.137 156.787 386.305 187.782 374.326 142.417H346.803Z" fill="black"/>
<path d="M350.854 55.8983C350.986 56.6269 350.703 57.2948 350.228 57.3757C349.753 57.4567 349.218 56.9406 349.127 56.2019C349.036 55.4632 349.279 54.8156 349.753 54.7245C350.228 54.6334 350.723 55.1697 350.854 55.8983Z" fill="#263238"/>
<path d="M342.602 57.3757C342.733 58.1043 342.451 58.7722 341.976 58.8532C341.501 58.9341 340.966 58.418 340.875 57.6894C340.784 56.9609 341.026 56.293 341.501 56.2019C341.976 56.1109 342.471 56.6674 342.602 57.3757Z" fill="#263238"/>
<path d="M341.723 56.2121L339.875 56.0198C339.875 56.0198 341.027 57.224 341.723 56.2121Z" fill="#263238"/>
<path d="M345.006 58.246C344.654 60.0291 344.06 61.7554 343.239 63.3764C343.661 63.5729 344.121 63.6747 344.587 63.6747C345.053 63.6747 345.513 63.5729 345.935 63.3764L345.006 58.246Z" fill="#DE5753"/>
<path d="M350.137 65.2991C350.109 65.2977 350.082 65.2884 350.059 65.2723C350.035 65.2562 350.017 65.2339 350.006 65.208C349.993 65.1731 349.994 65.1344 350.009 65.1003C350.024 65.0662 350.052 65.0395 350.087 65.0259C351.469 64.3537 352.549 63.1877 353.117 61.7574C353.122 61.7405 353.131 61.725 353.143 61.7117C353.155 61.6985 353.169 61.6877 353.185 61.6802C353.201 61.6726 353.219 61.6684 353.236 61.6677C353.254 61.6671 353.272 61.67 353.288 61.6764C353.323 61.6901 353.352 61.7163 353.369 61.75C353.386 61.7836 353.389 61.8223 353.379 61.8586C352.779 63.3705 351.627 64.597 350.157 65.289L350.137 65.2991Z" fill="#263238"/>
<path d="M351.773 52.6197C351.702 52.6209 351.634 52.5957 351.581 52.5489C351.168 52.1587 350.67 51.8705 350.127 51.7071C349.583 51.5437 349.009 51.5097 348.45 51.6078C348.415 51.6185 348.378 51.6221 348.341 51.6181C348.305 51.6142 348.27 51.6029 348.237 51.585C348.205 51.567 348.177 51.5428 348.155 51.5136C348.132 51.4845 348.116 51.4512 348.107 51.4155C348.088 51.3445 348.097 51.2688 348.133 51.2046C348.169 51.1404 348.228 51.0927 348.299 51.0715C348.949 50.9336 349.623 50.9535 350.264 51.1295C350.906 51.3055 351.496 51.6326 351.985 52.0834C352.036 52.1363 352.065 52.2071 352.065 52.2807C352.065 52.3544 352.036 52.4252 351.985 52.4781C351.964 52.5172 351.933 52.5506 351.897 52.5752C351.86 52.5999 351.817 52.6152 351.773 52.6197Z" fill="#263238"/>
<path d="M338.097 54.087H337.996C337.928 54.0559 337.874 53.9998 337.846 53.9301C337.818 53.8604 337.817 53.7826 337.845 53.7126C338.096 53.0953 338.491 52.5472 338.997 52.1142C339.504 51.6811 340.106 51.3757 340.754 51.2233C340.826 51.2112 340.9 51.2284 340.96 51.2711C341.019 51.3138 341.06 51.3785 341.072 51.451C341.084 51.5235 341.067 51.5977 341.024 51.6575C340.981 51.7173 340.917 51.7577 340.844 51.7698C340.289 51.9094 339.775 52.1782 339.343 52.5545C338.912 52.9308 338.575 53.4039 338.36 53.9353C338.335 53.9829 338.297 54.0225 338.251 54.0494C338.204 54.0763 338.151 54.0893 338.097 54.087Z" fill="#263238"/>
<path d="M277.467 228.44C276.275 228.208 274.215 227.661 273.761 226.609C273.686 226.421 273.661 226.217 273.688 226.017C273.714 225.817 273.792 225.627 273.912 225.465C273.969 225.359 274.053 225.27 274.156 225.207C274.259 225.145 274.377 225.112 274.498 225.111C275.639 225.111 277.427 227.884 277.619 228.208C277.635 228.231 277.644 228.26 277.644 228.289C277.644 228.318 277.635 228.346 277.619 228.37C277.602 228.393 277.579 228.412 277.552 228.425C277.526 228.437 277.496 228.442 277.467 228.44ZM274.437 225.405C274.369 225.405 274.302 225.425 274.243 225.46C274.184 225.496 274.136 225.547 274.104 225.607C274.014 225.729 273.956 225.871 273.934 226.022C273.913 226.172 273.93 226.325 273.983 226.467C274.255 227.084 275.407 227.661 277.104 228.036C276.457 227.095 275.175 225.405 274.437 225.405Z" fill="#FF6B0D"/>
<path d="M277.468 228.44C277.444 228.44 277.421 228.434 277.4 228.423C277.379 228.413 277.361 228.398 277.346 228.38C276.69 227.479 276.104 225.071 276.67 224.271C276.763 224.141 276.899 224.047 277.054 224.007C277.209 223.966 277.373 223.981 277.518 224.049C277.67 224.09 277.811 224.166 277.928 224.272C278.046 224.377 278.137 224.509 278.195 224.656C278.73 225.85 277.659 228.248 277.609 228.349C277.598 228.373 277.581 228.394 277.56 228.41C277.539 228.426 277.514 228.436 277.488 228.44H277.468ZM277.205 224.302C277.147 224.299 277.09 224.312 277.038 224.339C276.987 224.365 276.944 224.405 276.912 224.453C276.488 225.051 276.912 227.014 277.447 227.955C277.7 227.297 278.296 225.637 277.912 224.787C277.869 224.68 277.803 224.584 277.717 224.507C277.631 224.429 277.528 224.373 277.417 224.342C277.349 224.316 277.278 224.302 277.205 224.302Z" fill="#FF6B0D"/>
<path d="M349.975 54.7346L348.127 54.5424C348.127 54.5424 349.278 55.7465 349.975 54.7346Z" fill="#263238"/>
<path d="M374.841 140.232L375.134 143.571C375.266 143.834 374.963 144.097 374.528 144.097H336.754C336.421 144.097 336.138 143.935 336.118 143.723L335.785 140.373C335.785 140.141 336.057 139.948 336.421 139.948H374.225C374.344 139.938 374.463 139.959 374.571 140.008C374.679 140.058 374.772 140.135 374.841 140.232Z" fill="#FF6B0D"/>
<path opacity="0.2" d="M374.841 140.232L375.134 143.571C375.266 143.834 374.963 144.097 374.528 144.097H336.754C336.421 144.097 336.138 143.935 336.118 143.723L335.785 140.373C335.785 140.141 336.057 139.948 336.421 139.948H374.225C374.344 139.938 374.463 139.959 374.571 140.008C374.679 140.058 374.772 140.135 374.841 140.232Z" fill="#FAFAFA"/>
<path d="M369.761 144.461H370.771C370.973 144.461 371.124 144.36 371.114 144.229L370.64 139.877C370.64 139.756 370.448 139.645 370.246 139.645H369.236C369.034 139.645 368.882 139.756 368.892 139.877L369.367 144.229C369.377 144.36 369.559 144.461 369.761 144.461Z" fill="#FF6B0D"/>
<path opacity="0.6" d="M369.761 144.461H370.771C370.973 144.461 371.124 144.36 371.114 144.229L370.64 139.877C370.64 139.756 370.448 139.645 370.246 139.645H369.236C369.034 139.645 368.882 139.756 368.892 139.877L369.367 144.229C369.377 144.36 369.559 144.461 369.761 144.461Z" fill="black"/>
<path d="M339.602 144.461H340.612C340.814 144.461 340.976 144.36 340.955 144.229L340.481 139.877C340.481 139.756 340.289 139.645 340.087 139.645H339.077C338.875 139.645 338.723 139.756 338.733 139.877L339.208 144.229C339.228 144.36 339.36 144.461 339.602 144.461Z" fill="#FF6B0D"/>
<path opacity="0.6" d="M339.602 144.461H340.612C340.814 144.461 340.976 144.36 340.955 144.229L340.481 139.877C340.481 139.756 340.289 139.645 340.087 139.645H339.077C338.875 139.645 338.723 139.756 338.733 139.877L339.208 144.229C339.228 144.36 339.36 144.461 339.602 144.461Z" fill="black"/>
<path d="M354.682 144.461H355.692C355.894 144.461 356.045 144.36 356.035 144.229L355.561 139.877C355.561 139.756 355.369 139.645 355.167 139.645H354.157C353.955 139.645 353.803 139.756 353.813 139.877L354.288 144.229C354.308 144.36 354.51 144.461 354.682 144.461Z" fill="#FF6B0D"/>
<path opacity="0.6" d="M354.682 144.461H355.692C355.894 144.461 356.045 144.36 356.035 144.229L355.561 139.877C355.561 139.756 355.369 139.645 355.167 139.645H354.157C353.955 139.645 353.803 139.756 353.813 139.877L354.288 144.229C354.308 144.36 354.51 144.461 354.682 144.461Z" fill="black"/>
<path d="M372.115 101.07L376.932 105.179C375.922 110.643 375.215 115.197 374.771 119.244C373.872 115.187 371.579 104.227 372.115 101.07Z" fill="#FF6B0D"/>
<path opacity="0.3" d="M372.115 101.07L376.932 105.179C375.922 110.643 375.215 115.197 374.771 119.244C373.872 115.187 371.579 104.227 372.115 101.07Z" fill="#FAFAFA"/>
<path d="M270.044 116.573H335.573L345.066 155.329H279.548L270.044 116.573Z" fill="#FAFAFA"/>
<path d="M303.243 148.114L343.319 157.475L369.034 150.26L368.771 148.114H303.243Z" fill="#FAFAFA"/>
<path d="M268.034 116.573H333.553L343.047 155.329H277.528L268.034 116.573Z" fill="#FF6B0D"/>
<path opacity="0.2" d="M268.034 116.573H333.553L343.047 155.329H277.528L268.034 116.573Z" fill="#FAFAFA"/>
<path d="M277.528 155.329L277.791 157.475H343.319L343.047 155.329H277.528Z" fill="#FF6B0D"/>
<path opacity="0.2" d="M277.528 155.329L277.791 157.475H343.319L343.047 155.329H277.528Z" fill="#FAFAFA"/>
<path d="M384.416 96.8507C386.273 102.286 387.844 107.816 389.122 113.416C389.789 116.229 390.345 119.072 390.769 122.027C390.981 123.505 391.153 125.012 391.243 126.591C391.243 127.38 391.304 128.19 391.243 129.04V129.698V130.052L391.193 130.537C391.118 131.166 390.983 131.786 390.789 132.389C390.1 134.369 388.927 136.143 387.375 137.55C386.137 138.699 384.783 139.717 383.335 140.586C380.731 142.135 377.989 143.439 375.144 144.482C372.387 145.494 369.609 146.354 366.832 147.113C364.054 147.872 361.277 148.458 358.378 148.924L357.237 144.3C359.772 143.369 362.388 142.387 364.893 141.264C367.397 140.141 369.943 139.108 372.286 137.884C374.602 136.741 376.821 135.411 378.922 133.907C379.837 133.25 380.683 132.501 381.447 131.671C381.957 131.154 382.338 130.523 382.557 129.829C382.563 128.973 382.506 128.117 382.386 127.269C382.234 126.045 382.012 124.77 381.77 123.474C381.255 120.894 380.588 118.263 379.921 115.622C379.255 112.981 378.457 110.34 377.669 107.709C376.881 105.078 376.073 102.406 375.286 99.8359L384.416 96.8507Z" fill="#E4897B"/>
<path d="M380.891 86.5696C384.638 87.7029 390.365 102.416 390.365 102.416L375.851 112.809C375.851 112.809 369.327 100.23 370.892 95.3935C372.528 90.344 376.629 85.2642 380.891 86.5696Z" fill="#FF6B0D"/>
<path opacity="0.6" d="M380.891 86.5696C384.638 87.7029 390.365 102.416 390.365 102.416L375.851 112.809C375.851 112.809 369.327 100.23 370.892 95.3935C372.528 90.344 376.629 85.2642 380.891 86.5696Z" fill="#FAFAFA"/>
<path d="M359.146 144.633L350.47 142.417L354.621 150.816C354.621 150.816 360.519 151.069 362.469 147.78L359.146 144.633Z" fill="#E4897B"/>
<path d="M343.39 145.615L347.238 152.445L354.581 150.816L350.43 142.427L343.39 145.615Z" fill="#E4897B"/>
</svg>
